<?xml version="1.0" encoding="utf-8"?>
<!-- Generator: Adobe Illustrator 24.3.0, SVG Export Plug-In . SVG Version: 6.00 Build 0)  -->
<svg version="1.1" id="Layer_1" xmlns="http://www.w3.org/2000/svg" xmlns:xlink="http://www.w3.org/1999/xlink" x="0px" y="0px"
	 viewBox="0 0 1024 768" style="enable-background:new 0 0 1024 768;" xml:space="preserve">
<g>
	<g>
		<path d="M438.47,236.48c27.54-21.75,64.98-30.26,99.2-22.5c38.53,8.09,71.92,36.7,85.9,73.49c-2.99,0-5.96-0.01-8.92,0.05
			c-7.27-16.71-18.46-31.7-32.65-43.15c-15.76-12.79-35.08-21.18-55.19-23.82c-26.04-3.62-53.24,2.56-75.23,16.92
			c-21.14,13.63-37.23,34.63-45.3,58.42c29.23,0.13,58.45-0.07,87.68,0.1c12.29,0.5,22.16,13.22,19.55,25.24
			c-1.59,9.72-10.56,17.47-20.41,17.64c-14.05,0.24-28.09,0.05-42.14,0.09c-0.11,9.77,0.19,19.57-0.13,29.35
			c-1.01,4.61-6.32,4.04-9.92,3.93c0.05-14.3,0.03-28.59,0.01-42.89c16.97,0,33.94,0.02,50.91,0c5.47,0.19,10.71-3.73,12.05-9.03
			c2.08-6.95-3.86-14.72-11.07-14.71c-32.58-0.08-65.16-0.01-97.75-0.04C400.77,278.36,416.54,253.51,438.47,236.48z"/>
		<path d="M513.84,295.92c37.53-0.03,75.05,0.09,112.58-0.05c12.32,38.54,2.83,83.02-23.93,113.35
			c-26.24,30.89-68.97,46.55-108.97,39.93c-23.2-3.6-45.26-14.2-62.46-30.16c-29.03-26.19-43.42-67.21-37.49-105.82
			c2.83-0.01,5.67-0.02,8.5-0.03c-3.59,22.39-0.2,45.87,9.79,66.24c10.24,21.17,27.38,38.92,48.19,49.9
			c16.71,8.88,35.73,13.49,54.67,12.81c39.36-0.32,77.14-24,95.44-58.7c12.86-23.54,16.29-51.75,10.38-77.83
			c-34.22-0.19-68.43,0.11-102.65-0.15C513.23,304.75,513.73,299.4,513.84,295.92z"/>
		<path d="M543.33,324.36c3.62-0.21,8.98-0.36,9.79,4.28c0.24,14.53,0,29.06,0.11,43.59c-3.59,0.13-9.53,0.71-9.85-4.32
			C543.21,353.4,543.31,338.87,543.33,324.36z"/>
	</g>
	<g>
		<path d="M242.41,483.51h22.85c3.71,0,7.04,0.79,9.99,2.36c2.95,1.57,5.25,3.75,6.92,6.55c1.66,2.8,2.5,5.96,2.5,9.48
			c0,3.52-0.83,6.68-2.5,9.48c-1.67,2.8-3.97,4.98-6.92,6.55c-2.95,1.57-6.28,2.35-9.99,2.35h-13.59v21.82h-9.25V483.51z
			 M265.26,511.31c1.94,0,3.68-0.4,5.24-1.21s2.76-1.92,3.62-3.36c0.86-1.43,1.29-3.05,1.29-4.85s-0.43-3.41-1.29-4.83
			c-0.86-1.42-2.06-2.53-3.6-3.34c-1.54-0.8-3.3-1.21-5.26-1.21h-13.59v18.79H265.26z"/>
		<path d="M318.77,504.01c2.84,2.96,4.26,7.35,4.26,13.16v24.97h-4.59c-1.47,0-2.56-0.45-3.26-1.35s-1.04-2.11-1.04-3.64v-0.37
			c-4.26,4.07-8.84,6.1-13.76,6.1c-2.46,0-4.75-0.56-6.88-1.68c-2.13-1.12-3.83-2.65-5.1-4.59c-1.27-1.94-1.9-4.05-1.9-6.35
			c0-4.18,1.36-7.42,4.09-9.74c2.73-2.32,6.86-3.48,12.41-3.48c1.36,0,3.14,0.14,5.32,0.41c2.18,0.27,4.12,0.66,5.81,1.15
			c-0.03-3.66-0.73-6.31-2.11-7.96c-1.38-1.65-3.57-2.48-6.57-2.48c-1.58,0-2.97,0.12-4.16,0.37c-1.19,0.25-2.53,0.71-4.03,1.39
			c-0.68,0.3-1.43,0.45-2.25,0.45c-0.9,0-1.74-0.22-2.52-0.66c-0.78-0.44-1.37-1.04-1.78-1.8l-1.43-2.74
			c1.12-1.12,2.64-2.1,4.57-2.95c1.92-0.85,3.97-1.5,6.14-1.97c2.17-0.46,4.22-0.7,6.16-0.7
			C311.73,499.56,315.93,501.05,318.77,504.01z M308.19,533.44c1.95-0.91,3.94-2.09,5.96-3.54v-4.91c-3-0.82-6.26-1.23-9.79-1.23
			c-3.19,0-5.55,0.42-7.08,1.27c-1.53,0.85-2.29,2.36-2.29,4.55c0,1.67,0.64,2.95,1.92,3.87c1.28,0.91,3,1.37,5.16,1.37
			C304.19,534.82,306.23,534.36,308.19,533.44z"/>
		<path d="M364.3,538.38c-2.02,1.23-4.17,2.28-6.45,3.15c-2.28,0.87-4.7,1.31-7.27,1.31c-2.57,0-4.83-0.54-6.78-1.62
			c-1.95-1.08-3.47-2.63-4.54-4.67s-1.62-4.44-1.62-7.23v-20.76h-7.33v-5.45c0-0.93,0.3-1.64,0.9-2.13c0.6-0.49,1.27-0.74,2.01-0.74
			h4.42l0.16-10.93c0.05-1.04,0.36-1.9,0.92-2.6c0.56-0.7,1.39-1.04,2.48-1.04h5.45v14.58h11.79v8.31h-11.79v18.71
			c0,2.21,0.55,3.91,1.64,5.1c1.09,1.19,2.57,1.78,4.42,1.78c0.76,0,1.5-0.12,2.21-0.37c0.71-0.25,1.47-0.59,2.29-1.02
			c0.74-0.36,1.51-0.53,2.33-0.53c0.74,0,1.38,0.16,1.95,0.49c0.56,0.33,0.96,0.8,1.21,1.43L364.3,538.38z"/>
		<path d="M395.52,499.89c0.94,0.25,2.07,0.63,3.38,1.15l-0.9,4.05c-0.22,1.09-0.72,1.95-1.51,2.58c-0.79,0.63-1.73,0.94-2.82,0.94
			c-0.19,0-0.51-0.03-0.94-0.08c-0.76-0.14-1.6-0.2-2.5-0.2c-2.02,0-3.87,0.6-5.55,1.8c-1.68,1.2-3.08,2.81-4.2,4.83v27.15h-8.88
			v-41.84h4.95c1.42,0,2.43,0.4,3.03,1.21c0.6,0.81,0.9,1.82,0.9,3.05v1.35c1.42-1.97,3.09-3.51,5.02-4.65
			c1.92-1.13,4.05-1.7,6.37-1.7C393.35,499.52,394.58,499.65,395.52,499.89z"/>
		<path d="M404.36,485.36c0.53-0.93,1.26-1.67,2.19-2.21c0.93-0.55,1.94-0.82,3.03-0.82c1.06,0,2.05,0.27,2.97,0.82
			c0.91,0.55,1.64,1.28,2.17,2.21c0.53,0.93,0.8,1.92,0.8,2.99c0,1.06-0.27,2.06-0.8,2.99c-0.53,0.93-1.26,1.67-2.17,2.21
			c-0.92,0.55-1.9,0.82-2.97,0.82c-1.09,0-2.1-0.27-3.03-0.82c-0.93-0.55-1.66-1.28-2.19-2.21c-0.53-0.93-0.8-1.92-0.8-2.99
			C403.56,487.28,403.83,486.28,404.36,485.36z M414,542.1h-8.93v-41.84H414V542.1z"/>
		<path d="M434.03,540.06c-3.3-1.86-5.89-4.42-7.76-7.7c-1.87-3.28-2.8-6.99-2.8-11.14s0.93-7.87,2.78-11.16
			c1.86-3.29,4.44-5.86,7.76-7.72c3.32-1.86,7.06-2.78,11.24-2.78c2.65,0,5.4,0.56,8.25,1.68c2.85,1.12,5.12,2.62,6.82,4.5
			l-2.01,3.07c-0.44,0.68-1,1.21-1.68,1.6c-0.68,0.38-1.42,0.57-2.21,0.57c-0.93,0-1.77-0.23-2.54-0.7
			c-1.15-0.6-2.31-1.06-3.48-1.39c-1.17-0.33-2.25-0.49-3.23-0.49c-2.46,0-4.65,0.55-6.59,1.66c-1.94,1.11-3.46,2.63-4.56,4.59
			c-1.11,1.95-1.66,4.14-1.66,6.57s0.55,4.62,1.66,6.57c1.11,1.95,2.64,3.48,4.61,4.59c1.97,1.1,4.18,1.66,6.63,1.66
			c0.96,0,2.02-0.17,3.19-0.51c1.17-0.34,2.33-0.83,3.48-1.45c0.87-0.49,1.73-0.74,2.58-0.74c0.76,0,1.49,0.19,2.17,0.55
			c0.68,0.37,1.24,0.88,1.68,1.53l2.05,3.07c-1.8,1.99-4.08,3.55-6.84,4.67s-5.53,1.68-8.31,1.68
			C441.07,542.84,437.33,541.91,434.03,540.06z"/>
		<path d="M469.15,481.38h8.93v60.72h-8.93V481.38z M481.91,519.99c0.5-0.3,0.93-0.7,1.29-1.19l11.59-16.25
			c1.01-1.53,2.38-2.29,4.1-2.29h8.52l-13.88,18.63c-0.33,0.49-0.73,0.88-1.21,1.17c-0.48,0.29-0.95,0.47-1.41,0.55v0.04
			c0.49,0.14,1,0.36,1.51,0.67c0.52,0.31,0.9,0.65,1.15,1l14.74,19.78h-7.82c-1.09,0-2.06-0.23-2.91-0.7
			c-0.85-0.46-1.57-1.13-2.17-2.01l-12.12-16.91c-0.6-0.82-1.53-1.45-2.78-1.88C480.93,520.5,481.4,520.3,481.91,519.99z"/>
		<path d="M535.2,483.51h44.79v9.05h-17.73v49.54H553v-49.54H535.2V483.51z"/>
		<path d="M578.88,510.07c1.86-3.29,4.44-5.86,7.76-7.72c3.32-1.86,7.06-2.78,11.24-2.78c4.18,0,7.92,0.93,11.22,2.78
			c3.3,1.86,5.89,4.43,7.76,7.72c1.87,3.29,2.8,7.01,2.8,11.16s-0.94,7.86-2.8,11.14c-1.87,3.27-4.46,5.84-7.76,7.7
			c-3.3,1.86-7.04,2.78-11.22,2.78c-4.18,0-7.92-0.93-11.22-2.78c-3.3-1.86-5.89-4.42-7.76-7.7c-1.87-3.28-2.81-6.99-2.81-11.14
			S577.02,513.36,578.88,510.07z M586.64,527.79c1.11,1.95,2.64,3.48,4.61,4.59c1.96,1.1,4.18,1.66,6.63,1.66s4.67-0.55,6.63-1.64
			c1.96-1.09,3.5-2.61,4.61-4.56c1.11-1.95,1.66-4.16,1.66-6.61s-0.55-4.66-1.66-6.61c-1.1-1.95-2.64-3.47-4.61-4.56
			c-1.97-1.09-4.18-1.64-6.63-1.64s-4.67,0.55-6.63,1.64c-1.97,1.09-3.5,2.61-4.61,4.56c-1.11,1.95-1.66,4.16-1.66,6.61
			C584.98,523.65,585.53,525.84,586.64,527.79z"/>
		<path d="M657.82,502.12c3.11,1.71,5.55,4.11,7.33,7.21c1.77,3.1,2.67,6.65,2.7,10.67c0,1.31-0.39,2.4-1.17,3.27
			c-0.78,0.87-1.77,1.31-2.97,1.31h-28.91c0.46,1.91,1.29,3.59,2.5,5.04s2.69,2.57,4.46,3.36c1.77,0.79,3.71,1.19,5.81,1.19
			c2.05,0,4.14-0.6,6.26-1.8c0.85-0.46,1.73-0.7,2.66-0.7c0.82,0,1.59,0.18,2.31,0.53c0.72,0.36,1.3,0.87,1.74,1.56l2.05,3.03
			c-1.94,1.91-4.22,3.4-6.84,4.46c-2.62,1.07-5.35,1.6-8.19,1.6c-4.18,0-7.92-0.93-11.22-2.78c-3.3-1.86-5.89-4.42-7.76-7.7
			c-1.87-3.28-2.81-6.99-2.81-11.14c0-4.12,0.92-7.83,2.76-11.12c1.84-3.29,4.39-5.87,7.64-7.74c3.25-1.87,6.92-2.8,11.01-2.8
			C651.17,499.56,654.71,500.42,657.82,502.12z M658.88,517.01c-0.68-2.7-2.08-4.83-4.2-6.39c-2.12-1.56-4.61-2.33-7.47-2.33
			c-2.13,0-4.07,0.43-5.84,1.29c-1.76,0.86-3.23,2.06-4.4,3.6c-1.17,1.54-1.95,3.32-2.33,5.34h0.12c0.76-1.01,1.98-1.52,3.64-1.52
			H658.88z"/>
		<path d="M707.14,502.29c2.85,1.84,5.08,4.41,6.69,7.7s2.42,7.01,2.42,11.16c0,4.12-0.87,7.83-2.62,11.12
			c-1.75,3.29-4.17,5.86-7.27,7.72c-3.1,1.86-6.61,2.78-10.54,2.78c-2.08,0-4.03-0.41-5.88-1.23c-1.84-0.82-3.49-1.92-4.93-3.32
			v18.63h-8.93v-56.58h5.9c2.02,0,3.03,1.3,3.03,3.89v0.57c1.61-1.61,3.45-2.88,5.53-3.81c2.07-0.93,4.37-1.39,6.88-1.39
			C701.04,499.52,704.28,500.44,707.14,502.29z M701.48,532.32c1.84-1.09,3.28-2.61,4.32-4.56c1.04-1.95,1.56-4.16,1.56-6.61
			c0-2.43-0.51-4.61-1.53-6.53c-1.02-1.92-2.44-3.42-4.24-4.5c-1.8-1.08-3.85-1.62-6.14-1.62c-2.27,0-4.24,0.53-5.92,1.6
			c-1.68,1.07-3.19,2.46-4.52,4.18v14.66c0.46,0.74,1.21,1.49,2.25,2.27c1.04,0.78,2.25,1.43,3.64,1.96c1.39,0.53,2.85,0.8,4.38,0.8
			C697.57,533.96,699.64,533.41,701.48,532.32z"/>
		<path d="M754.4,502.12c3.11,1.71,5.56,4.11,7.33,7.21c1.77,3.1,2.68,6.65,2.7,10.67c0,1.31-0.39,2.4-1.17,3.27
			c-0.78,0.87-1.77,1.31-2.97,1.31h-28.91c0.46,1.91,1.3,3.59,2.5,5.04c1.2,1.45,2.69,2.57,4.46,3.36c1.77,0.79,3.71,1.19,5.81,1.19
			c2.05,0,4.14-0.6,6.27-1.8c0.84-0.46,1.73-0.7,2.66-0.7c0.82,0,1.59,0.18,2.31,0.53c0.72,0.36,1.3,0.87,1.74,1.56l2.05,3.03
			c-1.94,1.91-4.22,3.4-6.84,4.46c-2.62,1.07-5.35,1.6-8.19,1.6c-4.18,0-7.92-0.93-11.22-2.78c-3.3-1.86-5.89-4.42-7.76-7.7
			c-1.87-3.28-2.8-6.99-2.8-11.14c0-4.12,0.92-7.83,2.76-11.12c1.84-3.29,4.39-5.87,7.64-7.74c3.25-1.87,6.92-2.8,11.01-2.8
			C747.76,499.56,751.29,500.42,754.4,502.12z M755.47,517.01c-0.68-2.7-2.08-4.83-4.2-6.39c-2.12-1.56-4.61-2.33-7.47-2.33
			c-2.13,0-4.07,0.43-5.83,1.29c-1.76,0.86-3.23,2.06-4.4,3.6c-1.18,1.54-1.95,3.32-2.33,5.34h0.12c0.76-1.01,1.98-1.52,3.64-1.52
			H755.47z"/>
		<path d="M781.59,542.1h-8.93v-60.72h8.93V542.1z"/>
	</g>
</g>
</svg>
